# xmcd
#
# Track frame offsets:
#	150
#	12872
#	29152
#	43880
#	59707
#	83754
#	103764
#	127433
#	143889
#	158825
#	183906
#	203559
#	223821
#
# Disc length: 3172 seconds
#
# Revision: 1
# Processed by: cddbd v1.4PL0 Copyright (c) Steve Scherf et al.
# Submitted via: audiograbber 1.80
#
DISCID=c70c620d
DTITLE=Jake's Blues - Livin' At The Crossroads
DYEAR=1900
DGENRE=
TTITLE0=Livin' At The Crossroads
TTITLE1=Stay That Way
TTITLE2=Never Change
TTITLE3=Should I
TTITLE4=Just A Fool
TTITLE5=Little Red Rooster
TTITLE6=We Came To Party
TTITLE7=A Little Bit More
TTITLE8=Take It Easy On Me
TTITLE9=Moondog
TTITLE10=Sittin' On A Sunrise
TTITLE11=Castle Walls
TTITLE12=Holdin' On
EXTD=Excellent!
EXTT0=
EXTT1=
EXTT2=
EXTT3=
EXTT4=
EXTT5=
EXTT6=
EXTT7=
EXTT8=
EXTT9=
EXTT10=
EXTT11=
EXTT12=
PLAYORDER=
